<?xml version="1.0" standalone="no"?>
<!DOCTYPE svg PUBLIC "-//W3C//DTD SVG 20010904//EN"
 "http://www.w3.org/TR/2001/REC-SVG-20010904/DTD/svg10.dtd">
<svg version="1.0" xmlns="http://www.w3.org/2000/svg"
 width="260.000000pt" height="260.000000pt" viewBox="0 0 260.000000 260.000000"
 preserveAspectRatio="xMidYMid meet">
<metadata>
Created by potrace 1.11, written by Peter Selinger 2001-2013
</metadata>
<g transform="translate(0.000000,260.000000) scale(0.100000,-0.100000)"
fill="#000000" stroke="none">
<path d="M1041 2566 c-5 -12 -32 -63 -59 -112 -27 -49 -66 -120 -87 -159 -21
-38 -51 -93 -67 -122 -72 -129 -89 -239 -54 -348 l23 -70 22 75 c47 163 111
290 172 346 16 14 14 4 -12 -67 -17 -46 -37 -113 -45 -149 -18 -80 -30 -255
-18 -263 21 -12 168 108 232 190 38 49 77 134 87 189 17 96 -2 218 -47 309
-31 63 -122 205 -131 205 -4 0 -12 -11 -16 -24z"/>
<path d="M1273 1941 c-5 -3 -30 -35 -55 -71 -26 -36 -61 -80 -78 -99 -35 -39
-37 -44 -12 -37 68 20 242 24 322 7 90 -19 119 -29 192 -64 159 -77 286 -206
364 -372 56 -119 72 -200 69 -350 -3 -124 -3 -129 -28 -211 -46 -153 -135
-280 -272 -391 -43 -35 -178 -105 -235 -121 -235 -69 -469 -32 -671 104 -200
135 -333 392 -330 639 1 134 28 243 90 366 l48 96 -39 -9 c-21 -4 -71 -9 -110
-10 l-71 -3 -24 -52 c-88 -191 -103 -458 -39 -675 71 -238 264 -466 491 -580
247 -125 557 -130 819 -13 220 97 416 307 502 537 50 134 72 333 53 473 -13
91 -74 276 -113 340 -156 259 -363 415 -631 475 -76 17 -229 30 -242 21z"/>
<path d="M548 1795 c-2 -1 -43 -6 -93 -9 -49 -4 -99 -9 -110 -11 -11 -2 -48
-4 -83 -4 l-63 -1 17 -32 c37 -72 98 -150 145 -188 104 -82 231 -84 393 -4 56
27 64 40 35 55 -70 36 -135 54 -234 64 -33 4 -62 8 -64 10 -19 20 245 28 292
10 13 -6 16 -3 11 9 -8 21 -102 82 -139 90 -41 8 -103 15 -107 11z"/>
<path d="M969 1531 c-52 -24 -161 -139 -207 -217 -61 -104 -85 -183 -97 -320
-10 -108 15 -139 92 -118 26 7 31 19 38 94 23 221 60 289 253 456 41 36 47 66
19 92 -31 28 -60 32 -98 13z"/>
<path d="M717 808 c-44 -34 -37 -97 15 -119 25 -10 33 -9 56 8 39 29 41 74 6
102 -30 24 -53 26 -77 9z"/>
</g>
</svg>
